<svg  fill="#7e1b57" height="480pt" viewBox="0 -24 480 480" width="480pt" xmlns="http://www.w3.org/2000/svg"><path d="m480 127.898438v-32c0-4.417969-3.582031-8-8-8h-48c-4.417969 0-8 3.582031-8 8v32c.054688 14.550781 9.914062 27.230468 24 30.867187v17.132813h-37.761719l5.523438-22.054688c.597656-2.390625.0625-4.921875-1.453125-6.867188-1.519532-1.941406-3.84375-3.078124-6.308594-3.078124h-96c-2.464844 0-4.789062 1.136718-6.308594 3.078124-1.515625 1.945313-2.050781 4.476563-1.453125 6.867188l5.523438 22.054688h-25.914063l-27.847656-34.804688v-13.992188c18.613281-3.828124 31.976562-20.199218 32-39.203124v-8c0-4.417969-3.582031-8-8-8s-8 3.582031-8 8v8c-.042969 10.136718-6.445312 19.152343-16 22.53125v-70.53125c0-4.417969-3.582031-8-8-8s-8 3.582031-8 8v70.53125c-9.554688-3.378907-15.957031-12.394532-16-22.53125v-8c0-4.417969-3.582031-8-8-8s-8 3.582031-8 8v8c.023438 19.003906 13.386719 35.375 32 39.203124v14l-27.847656 34.796876h-25.914063l5.523438-22.054688c.597656-2.390625.0625-4.921875-1.453125-6.867188-1.519532-1.941406-3.84375-3.078124-6.308594-3.078124h-96c-2.464844 0-4.789062 1.136718-6.308594 3.078124-1.515625 1.945313-2.050781 4.476563-1.453125 6.867188l5.523438 22.054688h-37.761719v-17.132813c14.085938-3.636719 23.945312-16.316406 24-30.867187v-32c0-4.417969-3.582031-8-8-8h-48c-4.417969 0-8 3.582031-8 8v32c.0546875 14.550781 9.914062 27.230468 24 30.867187v17.132813h-8c-8.835938 0-16 7.164062-16 16v32c0 8.839843 7.164062 16 16 16h8v168c0 13.257812 10.746094 24 24 24s24-10.742188 24-24v-136h128c.484375-.050782.964844-.144532 1.433594-.285157l32.519531 37.527344c1.519531 1.753906 3.726563 2.761719 6.046875 2.761719s4.527344-1.007813 6.046875-2.761719l32.519531-37.527344c.46875.140625.949219.234375 1.433594.285157h128v136c0 13.257812 10.746094 24 24 24s24-10.742188 24-24v-168h8c8.835938 0 16-7.160157 16-16v-32c0-8.835938-7.164062-16-16-16h-8v-17.132813c14.085938-3.636719 23.945312-16.316406 24-30.867187zm-90.246094 32-4 16h-67.507812l-4-16zm-149.753906-3.199219 15.351562 19.199219h-30.703124zm-74.246094 3.199219-4 16h-67.507812l-4-16zm-149.753906-32v-24h32v24c0 8.839843-7.164062 16-16 16s-16-7.160157-16-16zm0 96v-32h116.34375l27.734375 32zm48 32c-4.417969 0-8 3.582031-8 8v144c0 4.421874-3.582031 8-8 8s-8-3.578126-8-8v-168h133.945312l13.871094 16zm176 35.785156-86.480469-99.785156h172.960938zm200 116.214844c0 4.421874-3.582031 8-8 8s-8-3.578126-8-8v-144c0-4.417969-3.582031-8-8-8h-123.816406l13.871094-16h133.945312zm24-216v32h-144.078125l27.734375-32zm-16-48c-8.835938 0-16-7.160157-16-16v-24h32v24c0 8.839843-7.164062 16-16 16zm0 0"/><path d="m234.320312 2.21875c-.707031.78125-1.273437 1.671875-1.679687 2.640625-.410156.960937-.628906 1.996094-.640625 3.039063.011719 2.125.84375 4.160156 2.320312 5.683593 1.53125 1.460938 3.5625 2.289063 5.679688 2.316407 1.046875-.011719 2.078125-.226563 3.039062-.636719.96875-.410157 1.863282-.976563 2.640626-1.679688l.960937-1.203125c.300781-.445312.539063-.929687.71875-1.4375.234375-.453125.390625-.9375.472656-1.441406.097657-.527344.15625-1.0625.167969-1.601562-.011719-1.042969-.230469-2.078126-.640625-3.039063-.40625-.96875-.972656-1.859375-1.679687-2.640625-3.207032-2.957031-8.152344-2.957031-11.359376 0zm0 0"/><path d="m202.320312 42.21875c-3.105468 3.132812-3.09375 8.1875.03125 11.300781 3.121094 3.113281 8.175782 3.113281 11.296876 0 3.125-3.113281 3.136718-8.167969.03125-11.300781-3.207032-2.957031-8.152344-2.957031-11.359376 0zm0 0"/><path d="m270.398438 40.058594c-.5.089844-.984376.25-1.4375.480468-.511719.175782-1 .417969-1.449219.722657-.414063.296875-.8125.617187-1.191407.957031-1.464843 1.53125-2.292968 3.5625-2.320312 5.679688-.027344 1.050781.191406 2.09375.640625 3.042968.386719.976563.957031 1.875 1.679687 2.640625l1.191407.957031c.449219.300782.9375.542969 1.449219.722657.453124.230469.9375.390625 1.4375.476562.53125.089844 1.066406.144531 1.601562.160157 2.117188-.03125 4.144531-.859376 5.679688-2.316407.722656-.765625 1.292968-1.664062 1.679687-2.640625.410156-.964844.628906-1.996094.640625-3.042968-.03125-2.117188-.859375-4.144532-2.320312-5.679688-1.914063-1.886719-4.644532-2.695312-7.28125-2.160156zm0 0"/></svg>
