<svg id="Layer_1" fill="#ffffff" enable-background="new 0 0 512 512" height="512" viewBox="0 0 512 512" width="512" xmlns="http://www.w3.org/2000/svg">
  <g><path
    d="m256 0c-110.28 0-200 89.72-200 200 0 78.711 45.478 155.186 95.727 215.265 46.548 55.655 92.48 91.823 94.413 93.335 5.792 4.533 13.93 4.533 19.722 0 1.933-1.512 47.865-37.68 94.413-93.335 50.259-60.093 95.725-136.565 95.725-215.265 0-110.28-89.72-200-200-200zm0 475.228c-77.111-65.809-168-174.171-168-275.228 0-92.636 75.364-168 168-168s168 75.364 168 168c0 101.065-90.923 209.449-168 275.228z"/><path
    d="m256 120.531c-13.893-10.639-31.058-16.531-48.998-16.531-44.063 0-79.911 35.317-79.911 78.727 0 85.053 117.855 134.046 122.873 136.09 3.868 1.576 8.203 1.577 12.073 0 5.017-2.044 122.873-51.037 122.873-136.09-.001-65.74-77.028-101.925-128.91-62.196zm0 165.952c-22.071-10.309-96.91-49.293-96.91-103.756 0-25.766 21.493-46.727 47.911-46.727 14.262 0 27.687 6.141 36.832 16.849 6.383 7.474 17.95 7.475 24.333 0 9.146-10.708 22.57-16.849 36.832-16.849 26.418 0 47.911 20.961 47.911 46.727 0 54.466-74.852 93.454-96.909 103.756z"/></g>
</svg>
