<?xml version="1.0" encoding="iso-8859-1"?>
<!-- Generator: Adobe Illustrator 19.0.0, SVG Export Plug-In . SVG Version: 6.00 Build 0)  -->
<svg version="1.1" id="Capa_1" xmlns="http://www.w3.org/2000/svg" fill="#ffffff" xmlns:xlink="http://www.w3.org/1999/xlink" x="0px" y="0px"
	 viewBox="0 0 512 512" style="enable-background:new 0 0 512 512;" xml:space="preserve">
<g>
	<g>
		<g>
			<path d="M41.27,279.572c-0.843-7.773-1.27-15.703-1.27-23.574c0-13.14,1.187-26.297,3.527-39.105
				c1.985-10.866-5.213-21.284-16.079-23.27c-10.867-1.983-21.284,5.213-23.27,16.079C1.406,224.877,0,240.453,0,255.997
				c0,9.305,0.505,18.688,1.503,27.887c1.111,10.249,9.78,17.845,19.859,17.845C33.272,301.73,42.554,291.416,41.27,279.572z"/>
			<path d="M40.171,158.312c9.698,5.431,21.86,1.897,27.222-7.678c5.943-10.613,12.842-20.803,20.506-30.288
				c6.942-8.591,5.605-21.184-2.986-28.126c-8.591-6.942-21.185-5.606-28.126,2.986c-9.078,11.235-17.252,23.308-24.294,35.884
				C27.096,140.727,30.534,152.914,40.171,158.312z"/>
			<path d="M60.211,347.36c-4.678-10.006-16.582-14.324-26.588-9.648c-10.006,4.678-14.326,16.582-9.648,26.589
				c10.527,22.518,24.281,43.376,40.879,61.994c7.349,8.244,19.992,8.971,28.238,1.62c8.245-7.35,8.97-19.993,1.62-28.238
				C80.7,383.96,69.092,366.358,60.211,347.36z"/>
			<path d="M276.122,0.777c-13.227-1.036-27.03-1.035-40.233-0.001C195.714,3.9,156.353,16.7,122.06,37.792
				c-9.409,5.787-12.345,18.105-6.558,27.514s18.105,12.345,27.514,6.558c28.911-17.782,62.098-28.574,95.986-31.209
				c11.155-0.874,22.827-0.875,34.008,0.001C383.863,49.276,472,141.959,472,255.998C472,375.394,375.377,472,256,472
				c-11.046,0-20,8.954-20,20c0,11.046,8.954,20,20,20c141.505,0,256-114.519,256-256.002C512,122.26,408.975,11.107,276.122,0.777z
				"/>
			<path d="M341.192,186.899c0-7.636-10.818-12.515-16.545-12.515c-5.303,0-10.605,2.333-13.787,8.484l-48.998,96.088
				c-1.273,2.334-1.697,4.667-1.697,6.363c0,7.424,4.879,11.454,11.03,11.454h49.634v22.485c0,6.787,8.272,10.181,16.545,10.181
				s16.545-3.394,16.545-10.181v-22.485h9.12c5.091,0,10.182-7.636,10.182-15.272c0-7.636-3.394-15.272-10.182-15.272h-9.12v-14.848
				c0-7-8.272-9.97-16.545-9.97s-16.545,2.97-16.545,9.97v14.848h-18.241l37.544-75.3
				C340.768,189.444,341.192,188.171,341.192,186.899z"/>
			<path d="M244.041,314.804c0-7.636-4.666-14.212-9.969-14.212h-55.573v-1.909c0-19.302,65.542-34.363,65.542-80.391
				c0-28.423-24.816-43.908-49.422-43.908c-24.181,0-47.938,14.848-47.938,40.726c0,13.363,6.363,17.181,14.848,17.181
				c10.818,0,17.394-5.939,17.394-12.09c0-11.667,7.424-15.909,15.908-15.909c11.879,0,16.121,8.273,16.121,15.06
				c0,26.939-66.815,46.029-66.815,79.331v20.575c0,6.151,8.484,10.181,14.423,10.181h75.513
				C239.375,329.439,244.041,322.44,244.041,314.804z"/>
			<path d="M182.717,459.257c-11.436-4.124-22.607-9.266-33.203-15.282c-9.606-5.453-21.813-2.088-27.268,7.517
				c-5.454,9.606-2.088,21.814,7.517,27.268c12.566,7.135,25.817,13.234,39.384,18.126c10.409,3.753,21.859-1.657,25.599-12.029
				C198.494,474.465,193.108,463.004,182.717,459.257z"/>
		</g>
	</g>
</g>
<g>
</g>
<g>
</g>
<g>
</g>
<g>
</g>
<g>
</g>
<g>
</g>
<g>
</g>
<g>
</g>
<g>
</g>
<g>
</g>
<g>
</g>
<g>
</g>
<g>
</g>
<g>
</g>
<g>
</g>
</svg>
