<svg  fill="#7e1b57" height="479pt" viewBox="-32 0 479 479.99829" width="479pt" xmlns="http://www.w3.org/2000/svg"><path d="m56.5 272v-67.054688c11.34375-12.867187 10.527344-32.390624-1.851562-44.261718-12.378907-11.875-31.917969-11.875-44.300782 0-12.378906 11.871094-13.195312 31.394531-1.847656 44.261718v67.054688c0 4.417969 3.582031 8 8 8h8c-.015625 26.730469 13.332031 51.699219 35.5625 66.542969 22.234375 14.839843 50.410156 17.589843 75.09375 7.328125 21.777344 11.160156 48.292969 6.796875 65.34375-10.757813v32.886719h16v-32.886719c17.050781 17.554688 43.5625 21.917969 65.34375 10.757813 24.683594 10.261718 52.859375 7.511718 75.089844-7.328125 22.234375-14.84375 35.578125-39.8125 35.566406-66.542969h8c4.417969 0 8-3.582031 8-8v-67.054688c11.34375-12.867187 10.527344-32.390624-1.851562-44.261718-12.378907-11.875-31.917969-11.875-44.300782 0-12.378906 11.871094-13.195312 31.394531-1.847656 44.261718v67.054688c0 4.417969 3.582031 8 8 8h8c.070312 19.652344-8.925781 38.242188-24.382812 50.382812-15.453126 12.136719-35.644532 16.472657-54.722657 11.746094 9.703125-10.328125 15.101563-23.960937 15.105469-38.128906v-8h8c4.417969 0 8-3.582031 8-8v-67.054688c11.34375-12.867187 10.527344-32.390624-1.851562-44.261718-12.378907-11.875-31.917969-11.875-44.300782 0-12.378906 11.871094-13.195312 31.394531-1.847656 44.261718v67.054688c0 4.417969 3.582031 8 8 8h8v8c-.046875 12.375-5.839844 24.03125-15.679688 31.535156-19.960937-11.371094-32.292968-32.566406-32.320312-55.535156v-152c0-4.417969 3.582031-8 8-8s8 3.582031 8 8v8c0 4.417969 3.582031 8 8 8s8-3.582031 8-8v-8c0-13.253906-10.746094-24-24-24s-24 10.746094-24 24v8h-16v-25.472656c9.585938-3.339844 16.007812-12.378906 16.007812-22.527344s-6.421874-19.1875-16.007812-22.527344v-17.472656h24c13.253906 0 24-10.746094 24-24s-10.746094-24-24-24h-64c-13.253906 0-24 10.746094-24 24s10.746094 24 24 24h24v17.472656c-9.585938 3.339844-16.007812 12.378906-16.007812 22.527344s6.421874 19.1875 16.007812 22.527344v25.472656h-16v-8c0-13.253906-10.746094-24-24-24s-24 10.746094-24 24v8c0 4.417969 3.582031 8 8 8s8-3.582031 8-8v-8c0-4.417969 3.582031-8 8-8s8 3.582031 8 8v152c-.027344 22.96875-12.363281 44.164062-32.320312 55.535156-9.84375-7.503906-15.636719-19.160156-15.679688-31.535156v-8h8c4.417969 0 8-3.582031 8-8v-67.054688c11.34375-12.867187 10.527344-32.390624-1.851562-44.261718-12.378907-11.875-31.917969-11.875-44.300782 0-12.378906 11.871094-13.195312 31.394531-1.847656 44.261718v67.054688c0 4.417969 3.582031 8 8 8h8v8c0 14.167969 5.402344 27.800781 15.101562 38.128906-19.074218 4.726563-39.265624.390625-54.722656-11.746094-15.457031-12.140624-24.453125-30.730468-24.378906-50.382812h8c4.417969 0 8-3.582031 8-8zm336-8h-16v-49.136719c5.226562 1.515625 10.773438 1.515625 16 0zm-24-80c0-8.835938 7.164062-16 16-16s16 7.164062 16 16-7.164062 16-16 16-16-7.164062-16-16zm-56 96h-16v-49.136719c5.226562 1.515625 10.773438 1.515625 16 0zm-24-80c0-8.835938 7.164062-16 16-16s16 7.164062 16 16-7.164062 16-16 16-16-7.164062-16-16zm-56-48v128c.011719 24.789062 11.539062 48.167969 31.199219 63.273438-11.679688 2.257812-23.761719-.84375-32.90625-8.453126-9.144531-7.609374-14.394531-18.921874-14.292969-30.820312v-152zm-56-120c-4.417969 0-8-3.582031-8-8s3.582031-8 8-8h64c4.417969 0 8 3.582031 8 8s-3.582031 8-8 8zm32 48c4.417969 0 8 3.582031 8 8s-3.582031 8-8 8-8-3.582031-8-8 3.582031-8 8-8zm-24 200v-128h16v152c.097656 11.898438-5.148438 23.210938-14.292969 30.820312-9.148437 7.609376-21.226562 10.710938-32.90625 8.453126 19.65625-15.105469 31.183594-38.484376 31.199219-63.273438zm-88-80c0-8.835938 7.164062-16 16-16s16 7.164062 16 16-7.164062 16-16 16-16-7.164062-16-16zm8 80v-49.136719c5.226562 1.515625 10.773438 1.515625 16 0v49.136719zm-64-16h-16v-49.136719c5.226562 1.515625 10.773438 1.515625 16 0zm-8-64c-8.835938 0-16-7.164062-16-16s7.164062-16 16-16 16 7.164062 16 16-7.164062 16-16 16zm0 0"/><path d="m200.5 392h16v16h-16zm0 0"/><path d="m88.5 376h16v16h-16zm0 0"/><path d="m88.5 408h16v16h-16zm0 0"/><path d="m312.5 376h16v16h-16zm0 0"/><path d="m312.5 408h16v16h-16zm0 0"/><path d="m178.84375 453.65625 24 24c3.125 3.121094 8.1875 3.121094 11.3125 0l24-24c3.121094-3.125 3.121094-8.1875 0-11.3125l-24-24c-3.125-3.121094-8.1875-3.121094-11.3125 0l-24 24c-3.125 3.125-3.125 8.1875 0 11.3125zm29.65625-18.34375 12.6875 12.6875-12.6875 12.6875-12.6875-12.6875zm0 0"/></svg>
