<?xml version="1.0" encoding="iso-8859-1"?>
<!-- Generator: Adobe Illustrator 19.0.0, SVG Export Plug-In . SVG Version: 6.00 Build 0)  -->
<svg  fill="#7e1b57" version="1.1" id="Capa_1" xmlns="http://www.w3.org/2000/svg" xmlns:xlink="http://www.w3.org/1999/xlink" x="0px" y="0px"
	 viewBox="0 0 512 512" style="enable-background:new 0 0 512 512;" xml:space="preserve">
<g>
	<g>
		<path d="M293.177,181.603c8.017,12.007,21.687,19.934,37.177,19.934s29.159-7.926,37.177-19.934
			c8.017,12.007,21.687,19.934,37.177,19.934c24.634,0,44.677-20.042,44.677-44.678c0-0.763-0.13-1.533-0.349-2.263
			c-0.593-1.923-9.656-30.314-36.332-59.51c-2.794-3.058-7.538-3.271-10.597-0.478c-3.058,2.793-3.272,7.538-0.478,10.597
			c15.569,17.04,24.644,33.955,29.232,44.153h-57.494c-0.044-0.162-0.092-0.334-0.139-0.502
			c-5.064-18.381-12.398-36.354-21.878-52.903c-7.758-13.544-17.25-26.415-28.805-37.074c-1.571-1.449-3.177-2.861-4.825-4.222
			c23.487,6.419,44.486,16.787,62.8,31.04c3.27,2.544,7.982,1.956,10.526-1.313c2.544-3.269,1.956-7.981-1.313-10.526
			c-35.808-27.868-80.797-41.998-133.734-42.002c-0.01,0-0.019,0-0.029,0c-35.328,0.003-67.452,6.402-95.481,19.02
			c-22.549,10.152-42.479,24.311-59.233,42.086c-28.169,29.883-37.66,59.582-38.29,61.628c-0.112,0.371-0.35,1.894-0.35,2.271
			c0,24.635,20.042,44.678,44.678,44.678c15.49,0,29.159-7.926,37.177-19.934c8.017,12.007,21.687,19.934,37.176,19.934
			c15.49,0,29.159-7.926,37.177-19.934c3.369,5.045,7.739,9.365,12.822,12.683v96.654H170.66c-4.142,0-7.5,3.358-7.5,7.5
			c0,4.142,3.358,7.5,7.5,7.5h239.442c4.893,0,8.874,3.98,8.874,8.874c0,4.892-3.98,8.873-8.874,8.873H101.899
			c-4.892,0-8.874-3.98-8.874-8.874s3.98-8.873,8.874-8.873h38.758c4.142,0,7.5-3.358,7.5-7.5c0-4.142-3.358-7.5-7.5-7.5h-38.758
			c-13.165,0-23.874,10.71-23.874,23.874s10.71,23.873,23.874,23.873h83.392l40.843,57.544c0,0-51.044,71.916-51.154,72.07
			c-3.463,4.88,0.15,11.842,6.116,11.842h41.337c2.43,0,4.709-1.177,6.116-3.159L256,438.311l27.45,38.673
			c1.407,1.982,3.686,3.159,6.116,3.159c0,0,41.258,0,41.336,0c5.972,0,9.577-6.966,6.116-11.842l-51.153-72.07l40.843-57.544
			h83.392c13.165,0,23.874-10.71,23.874-23.874c0-13.164-10.71-23.873-23.874-23.873H280.355v-96.654
			C285.438,190.968,289.808,186.65,293.177,181.603z M433.424,164.36c-3.33,12.745-14.942,22.176-28.716,22.176
			s-25.385-9.432-28.716-22.176H433.424z M266.977,338.687l-10.977,15.465l-10.978-15.465H266.977z M218.56,465.143h-22.941
			l39.713-55.952l11.471,16.161L218.56,465.143z M316.381,465.143H293.44l-89.754-126.455h22.941L316.381,465.143z M276.668,383.273
			l-11.471-16.161l20.175-28.425h22.941L276.668,383.273z M330.354,186.537c-13.774,0-25.385-9.432-28.717-22.176h57.433
			C355.74,177.105,344.128,186.537,330.354,186.537z M273.69,48.78c0.174,0.039,0.346,0.084,0.52,0.124
			c0.705,0.163,1.408,0.334,2.107,0.517c17.806,4.642,32.821,15.717,44.777,29.444c10.171,11.677,18.141,25.006,24.681,39.004
			c4.756,10.177,8.76,20.726,11.969,31.492h-57.159c-0.002-0.105-0.008-0.207-0.01-0.312c-0.455-17.793-2.486-35.603-6.84-52.88
			c-4.168-16.558-10.46-32.853-19.963-47.112c-0.065-0.098-0.132-0.203-0.197-0.3C273.613,48.765,273.652,48.772,273.69,48.78z
			 M107.292,186.537c-13.774,0-25.385-9.432-28.717-22.176h57.433C132.679,177.105,121.066,186.537,107.292,186.537z
			 M138.686,149.165c-0.017,0.063-0.037,0.132-0.054,0.194H81.137c4.807-10.69,14.541-28.752,31.52-46.617
			c15.406-16.209,33.715-29.122,54.419-38.377c8.632-3.858,17.696-7.084,27.165-9.674c-0.701,0.58-1.397,1.173-2.09,1.774
			c-17.048,14.797-29.633,34.12-39.226,54.395C147.093,123.184,142.305,136.022,138.686,149.165z M181.645,186.537
			c-13.774,0-25.385-9.432-28.716-22.176h57.432C207.032,177.105,195.419,186.537,181.645,186.537z M214.349,115.599
			c-0.012,0.07-0.023,0.14-0.033,0.209c-1.354,8.125-2.04,16.338-2.538,24.555c-0.168,2.995-0.294,5.995-0.364,8.996h-57.149
			c7.227-24.113,31.242-88.54,84.129-100.555C229.883,61.547,219.411,82.967,214.349,115.599z M226.591,144.536
			c0.429-9.708,1.389-19.395,2.998-28.98c3.141-18.74,8.765-37.283,18.454-53.725c2.384-4.045,5.021-7.957,7.998-11.592
			c0.024,0.03,0.048,0.057,0.073,0.087c3.01,3.6,5.639,7.516,8.02,11.558c9.832,16.685,15.418,35.663,18.493,54.691
			c1.747,10.811,2.732,21.799,2.951,32.749c0,0.012,0,0.023,0.001,0.035h-59.158C226.464,147.751,226.52,146.143,226.591,144.536z
			 M265.354,290.941h-18.709v-90.381c0.106,0.022,0.214,0.037,0.32,0.059c6.045,1.254,12.351,1.215,18.389-0.059V290.941z
			 M268.377,183.818c-7.795,3.596-16.96,3.592-24.755-0.001c-7.986-3.682-14.076-10.8-16.338-19.457h57.433
			C282.453,173.018,276.364,180.137,268.377,183.818z"/>
	</g>
</g>
<g>
	<g>
		<path d="M499.435,267.022l-15.203-3.741c-8.765-2.155-17.842,3.341-19.998,12.099l-23.619,95.981h-72.932v0.001
			c-8.096,0-14.683,6.586-14.683,14.683v19.345c0,7.802,6.123,14.185,13.814,14.639c0,0-13.89,50.452-13.937,50.624
			c-1.293,4.697,2.378,9.492,7.231,9.492h30.083c3.379,0,6.342-2.26,7.234-5.52l14.93-54.551h7.05l14.93,54.551
			c0.892,3.26,3.854,5.52,7.234,5.52c0,0,30.037,0,30.083,0c4.889,0,8.528-4.781,7.231-9.492l-14.078-51.137
			c8.982-1.913,16.278-8.761,18.546-17.979c0,0,28.168-114.459,28.182-114.516C513.688,278.269,508.166,269.171,499.435,267.022z
			 M384.466,465.143h-14.515l12.408-45.071h14.442L384.466,465.143z M447.293,465.143l-12.335-45.071H449.4l12.408,45.071H447.293z
			 M496.968,283.435l-28.182,114.516c-1.032,4.191-4.767,7.119-9.084,7.119H368v-18.709h78.493c3.452,0.001,6.458-2.354,7.283-5.707
			l25.024-101.688c0.197-0.802,1.046-1.315,1.847-1.118c0,0,15.204,3.741,15.205,3.741
			C496.667,281.79,497.169,282.622,496.968,283.435z"/>
	</g>
</g>
<g>
	<g>
		<path d="M159.123,470.653l-13.937-50.625c7.691-0.454,13.814-6.835,13.814-14.639v-19.345c0-8.096-6.586-14.683-14.683-14.683
			H71.385c0,0-23.603-95.917-23.619-95.982c-2.145-8.717-11.292-14.24-19.997-12.099c0,0-15.196,3.739-15.203,3.741
			c-8.737,2.15-14.251,11.258-12.1,19.998l28.182,114.517c2.268,9.217,9.565,16.066,18.546,17.979c0,0-14.055,51.055-14.078,51.137
			c-1.296,4.707,2.362,9.492,7.231,9.492H70.43c3.379,0,6.342-2.26,7.234-5.52l14.93-54.551h7.05l14.93,54.551
			c0.892,3.26,3.854,5.52,7.234,5.52c0,0,30.075,0,30.083,0C156.662,480.145,160.438,475.434,159.123,470.653z M64.707,465.143
			H50.192l12.408-45.071h14.442L64.707,465.143z M127.533,465.143l-12.335-45.071h14.442l12.408,45.071H127.533z M143.999,405.071
			H52.298c-4.316,0-8.052-2.927-9.084-7.119L15.033,283.436c-0.126-0.507,0.026-0.908,0.176-1.154
			c0.149-0.247,0.434-0.567,0.941-0.692l15.204-3.741c0.805-0.199,1.648,0.312,1.846,1.117l25.023,101.688
			c0.825,3.352,3.831,5.708,7.283,5.708h78.493V405.071z"/>
	</g>
</g>
<g>
</g>
<g>
</g>
<g>
</g>
<g>
</g>
<g>
</g>
<g>
</g>
<g>
</g>
<g>
</g>
<g>
</g>
<g>
</g>
<g>
</g>
<g>
</g>
<g>
</g>
<g>
</g>
<g>
</g>
</svg>
