<svg id="Layer_3" fill="#ffffff" enable-background="new 0 0 64 64" height="512" viewBox="0 0 64 64" width="512" xmlns="http://www.w3.org/2000/svg"><g><path d="m62.493 18.13-30-17c-.307-.173-.68-.173-.986 0l-30 17c-.314.178-.507.51-.507.87 0 3.86 3.141 7 7 7 2.543 0 4.774-1.363 6-3.397 1.226 2.034 3.457 3.397 6 3.397s4.774-1.363 6-3.397c.707 1.174 1.756 2.112 3 2.706v10.691h-7c-1.654 0-3 1.346-3 3v4c0 .552.447 1 1 1h7.796l.134.153c.316.361.679.668 1.07.929v11.918h-3c-.553 0-1 .448-1 1v4c0 .552.447 1 1 1h12c.553 0 1-.448 1-1v-4c0-.552-.447-1-1-1h-3v-11.917c.391-.261.754-.568 1.07-.929l.134-.154h7.796c.553 0 1-.448 1-1v-4c0-1.654-1.346-3-3-3h-7v-10.691c1.244-.594 2.293-1.533 3-2.706 1.226 2.034 3.457 3.397 6 3.397s4.774-1.363 6-3.397c1.226 2.034 3.457 3.397 6 3.397 3.859 0 7-3.14 7-7 0-.36-.193-.692-.507-.87zm-54.493 5.87c-2.566 0-4.687-1.943-4.969-4.435l16.165-9.16-5.996 7.995.014.01c-.126.167-.214.365-.214.59 0 2.757-2.243 5-5 5zm12 0c-2.656 0-4.815-2.088-4.97-4.706l8.514-11.352 4.883-2.767-3.397 13.582.018.004c-.02.079-.048.155-.048.239 0 2.757-2.243 5-5 5zm1 18v-3c0-.551.448-1 1-1h.546l3.5 4zm16 19h-10v-2h10zm-4-4h-2v-11.099c.328.061.661.099 1 .099s.672-.038 1-.099zm1.564-14.164c-.646.74-1.582 1.164-2.564 1.164s-1.918-.424-2.564-1.164l-4.232-4.836h13.592zm8.436-3.836v3h-5.046l3.5-4h.546c.552 0 1 .449 1 1zm-10-3h-2v-10.075c.327.047.66.075 1 .075s.673-.028 1-.075zm-1-12c-2.727 0-4.944-2.197-4.991-4.913l3.818-15.272 1.173-.666 1.173.665 3.818 15.272c-.047 2.717-2.264 4.914-4.991 4.914zm12 0c-2.757 0-5-2.243-5-5 0-.084-.028-.16-.048-.238l.018-.004-3.396-13.583 4.883 2.767 8.514 11.352c-.156 2.618-2.315 4.706-4.971 4.706zm12 0c-2.757 0-5-2.243-5-5 0-.225-.088-.423-.214-.59l.014-.01-5.996-7.995 16.165 9.16c-.282 2.492-2.403 4.435-4.969 4.435z"/><path d="m57 32c-1.654 0-3 1.346-3 3v11h-8c-2.206 0-4 1.794-4 4v1c0 .277.112.527.294.708l4.792 4.792-4.793 4.793c-.286.286-.372.716-.217 1.09.154.373.52.617.924.617h5c.266 0 .52-.105.707-.293l2.293-2.293 2.293 2.293c.187.188.441.293.707.293h5c.404 0 .77-.244.924-.617.155-.374.069-.804-.217-1.09l-4.793-4.793 4.792-4.792c.182-.181.294-.431.294-.708v-4-12c0-1.654-1.346-3-3-3zm-1 3c0-.551.448-1 1-1s1 .449 1 1v11h-2zm-10 13h12v2h-14c0-1.103.897-2 2-2zm5 4.586-.586-.586h1.172zm-5.586-.586h2.172l2 2-1.086 1.086zm2.172 9h-2.172l9-9h2.172zm9 0h-2.172l-2-2 1.086-1.086z"/><path d="m18 46h-8v-11c0-1.654-1.346-3-3-3s-3 1.346-3 3v12 4c0 .277.112.527.294.708l4.792 4.792-4.793 4.793c-.286.286-.372.716-.217 1.09.154.373.52.617.924.617h5c.266 0 .52-.105.707-.293l2.293-2.293 2.293 2.293c.187.188.441.293.707.293h5c.404 0 .77-.244.924-.617.155-.374.069-.804-.217-1.09l-4.793-4.793 4.792-4.792c.182-.181.294-.431.294-.708v-1c0-2.206-1.794-4-4-4zm2 4h-14v-2h12c1.103 0 2 .897 2 2zm-7.586 2h1.172l-.586.586zm-5.414-18c.552 0 1 .449 1 1v11h-2v-11c0-.551.448-1 1-1zm2.586 27h-2.172l3.086-3.086 1.086 1.086zm6.828 0-9-9h2.172l9 9zm-2-7 2-2h2.172l-3.086 3.086z"/></g></svg>
