<?xml version="1.0" encoding="iso-8859-1"?>
<!-- Generator: Adobe Illustrator 19.0.0, SVG Export Plug-In . SVG Version: 6.00 Build 0)  -->
<svg  fill="#7e1b57" version="1.1" id="Capa_1" xmlns="http://www.w3.org/2000/svg" xmlns:xlink="http://www.w3.org/1999/xlink" x="0px" y="0px"
	 viewBox="0 0 480.079 480.079" style="enable-background:new 0 0 480.079 480.079;" xml:space="preserve">
<g>
	<g>
		<path d="M432.079,192.064c0.017-20.168-3.153-40.213-9.392-59.392c30.608-28.722,32.137-76.818,3.416-107.426
			c-27.42-29.221-72.816-32.132-103.744-6.654c-25.69-12.268-53.811-18.6-82.28-18.528c-40.184,0.049-79.346,12.667-112,36.088
			C110.474,2.979,69.31-9.642,36.137,7.963C2.964,25.568-9.657,66.732,7.948,99.905c9.903,18.661,27.917,31.659,48.747,35.175
			C25.293,236.307,81.897,343.824,183.124,375.226c5.581,1.731,11.239,3.207,16.955,4.422v100.416h64v-97.656
			c61.828-7.862,116.03-45.155,145.472-100.088c6.906,3.78,14.655,5.756,22.528,5.744c26.51,0,48-21.49,48-48
			C480.079,213.554,458.589,192.064,432.079,192.064z M248.079,312.064v152h-32V262.688c0.016-6.368-2.516-12.478-7.032-16.968
			l-55.312-55.312c-3.504-3.504-3.504-9.184,0-12.688c3.504-3.504,9.184-3.504,12.688,0l32.688,32.696
			c7.542,7.542,19.769,7.542,27.311,0.001c3.624-3.624,5.659-8.54,5.657-13.665v-52.688c0-4.418,3.582-8,8-8s8,3.582,8,8v103.032
			c-0.001,13.789,11.177,24.969,24.966,24.97c6.623,0.001,12.975-2.63,17.658-7.314l23.032-23.032c3.512-3.484,9.176-3.484,12.688,0
			c3.504,3.501,3.506,9.179,0.005,12.683c-0.002,0.002-0.004,0.004-0.005,0.005l-31.312,31.312c-1.502,1.502-3.54,2.346-5.664,2.344
			h-17.368C258.824,288.064,248.079,298.809,248.079,312.064z M432.079,272.064c-7.499-0.023-14.744-2.721-20.432-7.608
			l-7.944-6.672l-4.424,9.376c-25.489,53.723-76.305,91.01-135.2,99.208v-54.304c0-4.418,3.582-8,8-8h17.368
			c6.371,0.017,12.483-2.515,16.976-7.032l31.312-31.312c9.751-9.751,9.751-25.561,0-35.312c-9.751-9.751-25.561-9.751-35.312,0
			l-23.032,23.032c-3.501,3.504-9.179,3.506-12.683,0.005c-1.685-1.683-2.631-3.968-2.629-6.349V144.064c0-13.255-10.745-24-24-24
			s-24,10.745-24,24v52.688c-0.153,1.894-1.813,3.304-3.706,3.151c-0.718-0.058-1.4-0.341-1.95-0.807l-32.688-32.688
			c-9.751-9.751-25.561-9.751-35.312,0s-9.751,25.561,0,35.312l55.312,55.312c1.494,1.504,2.336,3.536,2.344,5.656v100.76
			c-94.693-22.137-153.512-116.846-131.375-211.54c1.672-7.154,3.791-14.195,6.343-21.084l4-10.68l-11.432-0.08
			c-28.718-0.215-51.824-23.67-51.609-52.388c0.215-28.718,23.67-51.824,52.388-51.609c22.1,0.165,41.681,14.282,48.822,35.197
			l3.688,10.808l8.896-7.16c54.034-43.489,128.582-51.156,190.336-19.576l5.208,2.672l4.12-4.16
			c23.096-23.762,61.082-24.302,84.844-1.206c23.762,23.096,24.302,61.082,1.206,84.844c-2.182,2.245-4.537,4.316-7.042,6.193
			l-4.64,3.552l1.968,5.496c6.82,19.039,10.298,39.113,10.28,59.336c0,2.84-0.08,5.672-0.216,8.488l-0.48,10.32l10.112-2.12
			c2.166-0.452,4.372-0.682,6.584-0.688c17.673,0,32,14.327,32,32S449.752,272.064,432.079,272.064z"/>
	</g>
</g>
<g>
	<g>
		<path d="M248.079,40.064c-13.255,0-24,10.745-24,24s10.745,24,24,24c13.255,0,24-10.745,24-24S261.334,40.064,248.079,40.064z
			 M248.079,72.064c-4.418,0-8-3.582-8-8s3.582-8,8-8s8,3.582,8,8S252.497,72.064,248.079,72.064z"/>
	</g>
</g>
<g>
	<g>
		<path d="M312.079,152.064c-13.255,0-24,10.745-24,24s10.745,24,24,24s24-10.745,24-24S325.334,152.064,312.079,152.064z
			 M312.079,184.064c-4.418,0-8-3.582-8-8s3.582-8,8-8s8,3.582,8,8S316.497,184.064,312.079,184.064z"/>
	</g>
</g>
<g>
	<g>
		<path d="M352.079,64.064c-13.255,0-24,10.745-24,24s10.745,24,24,24s24-10.745,24-24S365.334,64.064,352.079,64.064z
			 M352.079,96.064c-4.418,0-8-3.582-8-8s3.582-8,8-8s8,3.582,8,8S356.497,96.064,352.079,96.064z"/>
	</g>
</g>
<g>
	<g>
		<path d="M128.079,232.064c-13.255,0-24,10.745-24,24c0,13.255,10.745,24,24,24s24-10.745,24-24
			C152.079,242.809,141.334,232.064,128.079,232.064z M128.079,264.064c-4.418,0-8-3.582-8-8c0-4.418,3.582-8,8-8s8,3.582,8,8
			C136.079,260.482,132.497,264.064,128.079,264.064z"/>
	</g>
</g>
<g>
	<g>
		<path d="M120.079,88.064c-13.255,0-24,10.745-24,24s10.745,24,24,24s24-10.745,24-24S133.334,88.064,120.079,88.064z
			 M120.079,120.064c-4.418,0-8-3.582-8-8s3.582-8,8-8s8,3.582,8,8S124.497,120.064,120.079,120.064z"/>
	</g>
</g>
<g>
</g>
<g>
</g>
<g>
</g>
<g>
</g>
<g>
</g>
<g>
</g>
<g>
</g>
<g>
</g>
<g>
</g>
<g>
</g>
<g>
</g>
<g>
</g>
<g>
</g>
<g>
</g>
<g>
</g>
</svg>
